PathFileType  4	(X/Y/Z) C:\Users\antoi\Documents\MyRepositories\mobilecap\ResultsAnalysis
DataRate	CameraRate	NumFrames	NumMarkers	Units	OrigDataRate	OrigDataStartFrame	OrigNumFrames
100.0	100.0	4	51	mm	100.0	496	1321
Frame#	Time	r_knee			r_shank_antsup			r_ankle			r_calc			r_5meta			r_toe			L_knee			L_shank_antsup			L_ankle			L_calc			L_5meta			L_toe			r_sh2			r_sh3			r_sh4			L_sh2			L_sh3			r_thigh1			r_thigh2			r_thigh3			r_thigh4			r_thigh5			L_thigh1			L_thigh2			L_thigh3			L_thigh4			r.ASIS			r.PSIS			L.ASIS			L.PSIS			C7			R_Shoulder			L_Shoulder			R_Sternum			L_Sternum			R_humerus			R_elbow_med			R_elbow_lat			R_forearm			R_wrist_radius			R_wrist_ulna			L_humerus			L_elbow_med			L_elbow_lat			L_forearm			L_wrist_radius			L_wrist_ulna			R_HJC			L_HJC			R_HJC_reg			L_HJC_reg			
		X1	Y1	Z1	X2	Y2	Z2	X3	Y3	Z3	X4	Y4	Z4	X5	Y5	Z5	X6	Y6	Z6	X7	Y7	Z7	X8	Y8	Z8	X9	Y9	Z9	X10	Y10	Z10	X11	Y11	Z11	X12	Y12	Z12	X13	Y13	Z13	X14	Y14	Z14	X15	Y15	Z15	X16	Y16	Z16	X17	Y17	Z17	X18	Y18	Z18	X19	Y19	Z19	X20	Y20	Z20	X21	Y21	Z21	X22	Y22	Z22	X23	Y23	Z23	X24	Y24	Z24	X25	Y25	Z25	X26	Y26	Z26	X27	Y27	Z27	X28	Y28	Z28	X29	Y29	Z29	X30	Y30	Z30	X31	Y31	Z31	X32	Y32	Z32	X33	Y33	Z33	X34	Y34	Z34	X35	Y35	Z35	X36	Y36	Z36	X37	Y37	Z37	X38	Y38	Z38	X39	Y39	Z39	X40	Y40	Z40	X41	Y41	Z41	X42	Y42	Z42	X43	Y43	Z43	X44	Y44	Z44	X45	Y45	Z45	X46	Y46	Z46	X47	Y47	Z47	X48	Y48	Z48	X49	Y49	Z49	X50	Y50	Z50	X51	Y51	Z51	

496	4.95000000	-138.41004	438.27033	-408.61959	-89.18169	374.41767	-408.50412	-249.42991	83.03478	-429.55929	-304.70133	54.23050	-476.37087	-144.90793	42.25467	-401.05324	-106.03296	62.60341	-453.02069	-120.76978	436.36191	-792.77107	-78.58399	345.53901	-777.38908	-234.76767	89.44290	-762.61596	-293.88668	51.85669	-714.71331	-139.28426	43.94445	-798.03050	-85.06691	61.20651	-747.75470	-135.86163	271.33030	-406.19667	-154.85204	403.62731	-382.37530	-207.55268	299.88505	-381.18199	-149.51616	382.77572	-818.63661	-191.90395	267.18282	-818.59464	-340.53861	587.40161	-390.05658	-235.67042	541.24042	-391.48598	-245.32339	472.71683	-390.31211	-388.60603	487.36560	-408.82077	-279.86493	441.73848	-419.64110	-351.13312	598.99269	-808.58605	-225.52124	543.41454	-801.00063	-403.85955	498.57469	-802.09356	-276.80165	443.33384	-782.08335	-351.36151	659.27004	-496.22890	-533.48951	746.79785	-570.73955	-349.91329	652.31661	-707.76698	-533.21059	740.96976	-651.33228	-228.36955	1078.26999	-606.82725	-178.47755	1044.19934	-479.68182	-169.51643	1041.67275	-726.60107	-132.85554	975.40762	-582.45525	-135.24820	975.68986	-613.66290	-116.25173	987.29387	-413.72110	-28.59580	793.87369	-365.19027	-10.84433	841.94282	-319.43072	73.35147	883.17294	-332.44203	207.74323	899.31806	-372.02610	216.08531	865.33506	-355.91240	-110.39741	986.25448	-796.47676	11.04713	800.80875	-812.44346	23.93391	849.86085	-854.64617	125.62599	877.63793	-829.78822	239.39087	891.08931	-777.57262	247.31556	854.11051	-790.93920	-453.09651	600.24331	-496.52267	-450.20589	594.25202	-703.92314	-436.87752	621.67933	-522.47906	-436.39658	611.60229	-661.80818	
497	4.96000000	-138.82554	437.93415	-408.75084	-89.03689	374.26380	-408.88982	-249.41726	83.07970	-429.66739	-304.63178	54.20195	-476.47254	-144.90479	42.26807	-401.05999	-106.00866	62.59258	-453.00348	-121.20321	435.80967	-793.20255	-78.51297	345.50163	-777.87636	-234.79235	89.35878	-762.56943	-293.85566	51.81273	-714.75146	-139.31008	43.92608	-798.03558	-85.06674	61.29241	-747.82007	-135.43755	270.98393	-406.56712	-154.82196	403.32860	-382.51513	-207.12547	299.55740	-381.34671	-149.69360	382.20135	-818.64535	-191.75549	266.65403	-818.63380	-344.62734	582.37939	-390.49851	-238.79438	538.90915	-391.76713	-246.58077	469.63804	-390.90649	-390.30222	480.92096	-408.99003	-280.51785	437.90776	-420.02249	-354.70493	593.12156	-808.83520	-228.17015	540.31562	-801.10113	-405.40383	491.74527	-802.82863	-277.31118	439.34922	-782.77406	-354.84278	651.50050	-495.99934	-537.03955	737.94228	-571.28445	-353.25785	644.36713	-708.54010	-536.74598	732.09799	-651.83590	-231.31441	1068.75713	-607.65089	-181.43507	1035.01359	-480.52412	-172.48882	1032.18849	-727.05871	-137.33376	964.16038	-582.53644	-138.13917	966.10716	-614.45603	-118.64416	979.04255	-414.75196	-29.42654	786.83099	-365.43624	-11.83557	835.09910	-319.86180	71.95221	876.79327	-333.24381	206.29039	893.84958	-372.65511	214.86001	859.99251	-356.54759	-112.84541	977.18282	-796.88633	10.54040	792.98434	-812.08345	22.79985	842.12040	-854.33463	124.15169	871.02892	-829.51047	237.78572	885.79239	-777.20241	246.01753	848.72701	-790.22187	-456.18796	591.92040	-496.84777	-453.10925	585.77292	-704.24164	-440.18884	613.16403	-522.37788	-439.67957	603.00662	-662.36773	
498	4.97000000	-139.36977	437.52072	-408.84036	-89.02035	374.17738	-409.18192	-249.38874	83.08972	-429.73561	-304.56675	54.15930	-476.50957	-144.90237	42.26736	-401.08718	-105.99229	62.58739	-453.00338	-121.84822	435.44571	-793.64505	-78.51725	345.52289	-778.24832	-234.83415	89.26273	-762.47443	-293.77640	51.82124	-714.81928	-139.34342	43.91885	-798.08302	-85.08304	61.35800	-747.86602	-135.04751	270.65736	-406.94701	-154.97419	403.02952	-382.74252	-207.06366	299.85454	-381.23375	-150.04160	381.67327	-818.52906	-191.74770	266.21472	-818.69291	-348.73794	577.22338	-391.08229	-241.70745	536.38600	-392.21446	-247.87509	466.65261	-391.41644	-391.88386	474.55652	-409.25787	-281.08536	434.21725	-420.23158	-358.16383	587.43116	-809.13574	-230.92657	537.41368	-801.11503	-406.96849	485.16455	-803.52427	-277.87451	435.30545	-783.12151	-358.25858	643.94428	-495.92123	-540.71051	729.09541	-571.79727	-356.50979	636.66332	-709.33117	-540.32776	723.43776	-652.47180	-234.57138	1059.58435	-608.24531	-184.62962	1026.40490	-481.28692	-175.74187	1023.07114	-727.47582	-140.20942	955.34000	-583.43484	-141.29783	957.04680	-615.07698	-121.44420	971.12421	-415.59061	-30.59899	780.21789	-365.34225	-13.24033	828.42792	-320.43177	70.19646	870.70418	-334.01386	204.40924	888.55330	-373.43780	213.23953	854.75180	-357.28770	-115.70851	968.49978	-797.18763	9.53046	785.44827	-811.60323	21.21755	834.59238	-853.72710	122.24293	864.69274	-829.37828	235.69896	880.54934	-776.74006	244.28781	843.45892	-789.64462	-459.20027	583.70939	-497.28632	-455.91048	577.50513	-704.67506	-443.39803	604.50600	-522.56464	-442.73104	594.64629	-663.15381	
499	4.98000000	-139.98088	437.06826	-408.89311	-89.14423	374.13033	-409.49406	-249.36010	83.11655	-429.76255	-304.55764	54.08387	-476.49529	-144.89653	42.25626	-401.10357	-105.98411	62.58787	-453.01389	-122.63259	435.15811	-793.97714	-78.78011	345.40382	-778.18344	-234.86789	89.20949	-762.41874	-293.75026	51.80450	-714.79650	-139.38213	43.90960	-798.15996	-85.22345	61.27526	-747.90074	-134.73258	270.38374	-407.38112	-155.19285	402.76628	-382.95646	-207.09451	299.86620	-381.27444	-150.45052	381.30829	-818.52613	-191.81161	265.74946	-818.66407	-352.51832	572.20257	-391.58876	-244.55208	533.69979	-392.71301	-249.11177	463.79006	-391.85621	-393.33007	468.53906	-409.33399	-281.58656	430.65086	-420.18286	-361.61311	582.09903	-809.52652	-233.71935	534.68082	-801.14840	-408.66546	478.96369	-804.20666	-278.51098	431.30097	-783.26091	-361.36730	636.53495	-496.63130	-544.46321	720.38468	-572.41047	-359.00079	628.88592	-709.12047	-543.95511	714.84944	-653.21869	-238.14967	1050.85652	-608.75021	-188.06391	1018.41500	-482.09450	-179.30625	1014.47872	-727.98703	-142.11608	948.39878	-584.51657	-144.84666	948.41730	-615.34944	-124.58272	963.60961	-416.27162	-32.00539	773.77088	-364.75343	-15.08441	822.00130	-321.07737	68.09852	864.89880	-334.78300	202.16179	883.44282	-374.43962	211.18745	849.70309	-358.07133	-118.97020	960.25349	-797.40711	7.98427	778.32710	-811.16358	19.23578	827.36077	-853.14242	120.05811	858.53763	-829.16307	233.18706	875.37658	-776.27808	242.11808	838.31277	-789.05617	-462.01353	575.66867	-497.63879	-458.26476	569.21202	-705.01025	-445.95700	596.36373	-523.26986	-445.07680	586.77398	-663.28345	
